<svg width="59" height="59" viewBox="0 0 59 59" fill="none" xmlns="http://www.w3.org/2000/svg">
<path d="M29.0011 58.0022C45.0179 58.0022 58.0022 45.0179 58.0022 29.0011C58.0022 12.9842 45.0179 0 29.0011 0C12.9842 0 0 12.9842 0 29.0011C0 45.0179 12.9842 58.0022 29.0011 58.0022Z" fill="url(#paint0_radial_495_2189)"/>
<g style="mix-blend-mode:soft-light">
<path d="M29.0011 58.0022C45.0179 58.0022 58.0022 45.0179 58.0022 29.0011C58.0022 12.9842 45.0179 0 29.0011 0C12.9842 0 0 12.9842 0 29.0011C0 45.0179 12.9842 58.0022 29.0011 58.0022Z" fill="url(#paint1_radial_495_2189)"/>
</g>
<g style="mix-blend-mode:soft-light">
<path d="M29.0011 58.0022C45.0179 58.0022 58.0022 45.0179 58.0022 29.0011C58.0022 12.9842 45.0179 0 29.0011 0C12.9842 0 0 12.9842 0 29.0011C0 45.0179 12.9842 58.0022 29.0011 58.0022Z" fill="url(#paint2_radial_495_2189)"/>
</g>
<g style="mix-blend-mode:overlay">
<path d="M29.0011 58.0022C45.0179 58.0022 58.0022 45.0179 58.0022 29.0011C58.0022 12.9842 45.0179 0 29.0011 0C12.9842 0 0 12.9842 0 29.0011C0 45.0179 12.9842 58.0022 29.0011 58.0022Z" fill="url(#paint3_radial_495_2189)" fill-opacity="0.7"/>
</g>
<mask id="mask0_495_2189" style="mask-type:alpha" maskUnits="userSpaceOnUse" x="0" y="0" width="59" height="59">
<path d="M29.0011 58.0022C45.0179 58.0022 58.0022 45.0179 58.0022 29.0011C58.0022 12.9842 45.0179 0 29.0011 0C12.9842 0 0 12.9842 0 29.0011C0 45.0179 12.9842 58.0022 29.0011 58.0022Z" fill="white"/>
</mask>
<g mask="url(#mask0_495_2189)">
<g filter="url(#filter0_f_495_2189)">
<path d="M-0.165469 28.1735C-0.133978 27.7615 0.00162631 27.7202 0.0411777 28.1386C0.08512 28.6035 -0.000299677 29.5381 0.0202656 30.1018C0.0747186 31.5945 0.303531 32.8923 0.539411 33.948C1.29954 37.35 2.35221 39.5421 3.33404 41.3994C6.56139 47.5046 10.0967 50.5961 13.5455 52.9261C18.6008 56.3414 23.6973 57.4278 28.7979 57.6582C28.9265 57.664 28.9479 58.502 28.8214 58.6111C28.5931 58.8078 28.3104 58.6126 28.0769 58.6044C27.4059 58.5809 26.735 58.5349 26.0641 58.4651C24.0749 58.2584 22.0857 57.8374 20.1006 57.1601C14.7031 55.3186 8.88338 52.1654 3.80088 43.2841C3.48115 42.7254 3.16395 42.1372 2.85124 41.5051C2.60116 40.9996 2.35351 40.4697 2.11022 39.903C1.31001 38.0389 -0.554747 33.2671 -0.165469 28.1735ZM28.8014 58.6201C28.6787 58.6239 28.6476 57.8427 28.7646 57.6805C28.9414 57.4353 29.2065 57.6372 29.3929 57.6255C30.1671 57.5772 30.9412 57.5054 31.715 57.4082C33.8368 57.1418 35.957 56.6868 38.0725 55.9863C43.3196 54.2486 48.9608 51.5995 53.9071 43.4608C54.2219 42.9428 54.534 42.3933 54.8419 41.8025C55.7775 40.0074 58.1226 35.2423 57.8515 29.3186C57.8286 28.8192 57.9807 28.5201 58.0487 28.9485C58.1353 29.4939 58.1001 30.631 58.0763 31.2361C57.9999 33.1739 57.7023 34.8127 57.3885 36.1362C56.394 40.3305 54.9979 42.7624 53.7194 44.7929C49.5637 51.3929 45.0502 54.0536 40.662 55.9656C36.7262 57.6805 32.7605 58.4979 28.8014 58.6201Z" fill="#401C02"/>
</g>
<g filter="url(#filter1_f_495_2189)">
<path d="M-0.165469 28.1735C-0.133978 27.7615 0.00162631 27.7202 0.0411777 28.1386C0.08512 28.6035 -0.000299677 29.5381 0.0202656 30.1018C0.0747186 31.5945 0.303531 32.8923 0.539411 33.948C1.29954 37.35 2.35221 39.5421 3.33404 41.3994C6.56139 47.5046 10.0967 50.5961 13.5455 52.9261C18.6008 56.3414 23.6973 57.4278 28.7979 57.6582C28.9265 57.664 28.9479 58.502 28.8214 58.6111C28.5931 58.8078 28.3104 58.6126 28.0769 58.6044C27.4059 58.5809 26.735 58.5349 26.0641 58.4651C24.0749 58.2584 22.0857 57.8374 20.1006 57.1601C14.7031 55.3186 8.88338 52.1654 3.80088 43.2841C3.48115 42.7254 3.16395 42.1372 2.85124 41.5051C2.60116 40.9996 2.35351 40.4697 2.11022 39.903C1.31001 38.0389 -0.554747 33.2671 -0.165469 28.1735ZM28.8014 58.6201C28.6787 58.6239 28.6476 57.8427 28.7646 57.6805C28.9414 57.4353 29.2065 57.6372 29.3929 57.6255C30.1671 57.5772 30.9412 57.5054 31.715 57.4082C33.8368 57.1418 35.957 56.6868 38.0725 55.9863C43.3196 54.2486 48.9608 51.5995 53.9071 43.4608C54.2219 42.9428 54.534 42.3933 54.8419 41.8025C55.7775 40.0074 58.1226 35.2423 57.8515 29.3186C57.8286 28.8192 57.9807 28.5201 58.0487 28.9485C58.1353 29.4939 58.1001 30.631 58.0763 31.2361C57.9999 33.1739 57.7023 34.8127 57.3885 36.1362C56.394 40.3305 54.9979 42.7624 53.7194 44.7929C49.5637 51.3929 45.0502 54.0536 40.662 55.9656C36.7262 57.6805 32.7605 58.4979 28.8014 58.6201Z" fill="#401C02"/>
</g>
</g>
<path d="M20.5744 28.864C22.3077 28.864 23.7128 24.9329 23.7128 20.0836C23.7128 15.2343 22.3077 11.3032 20.5744 11.3032C18.841 11.3032 17.4359 15.2343 17.4359 20.0836C17.4359 24.9329 18.841 28.864 20.5744 28.864Z" fill="url(#paint4_radial_495_2189)"/>
<path d="M20.5744 28.864C22.3077 28.864 23.7128 24.9329 23.7128 20.0836C23.7128 15.2343 22.3077 11.3032 20.5744 11.3032C18.841 11.3032 17.4359 15.2343 17.4359 20.0836C17.4359 24.9329 18.841 28.864 20.5744 28.864Z" stroke="url(#paint5_linear_495_2189)" stroke-width="0.240493" stroke-miterlimit="10"/>
<path d="M37.481 28.864C39.2143 28.864 40.6194 24.9329 40.6194 20.0836C40.6194 15.2343 39.2143 11.3032 37.481 11.3032C35.7477 11.3032 34.3425 15.2343 34.3425 20.0836C34.3425 24.9329 35.7477 28.864 37.481 28.864Z" fill="url(#paint6_radial_495_2189)"/>
<path d="M37.481 28.864C39.2143 28.864 40.6194 24.9329 40.6194 20.0836C40.6194 15.2343 39.2143 11.3032 37.481 11.3032C35.7477 11.3032 34.3425 15.2343 34.3425 20.0836C34.3425 24.9329 35.7477 28.864 37.481 28.864Z" stroke="url(#paint7_linear_495_2189)" stroke-width="0.240493" stroke-miterlimit="10"/>
<path d="M48.1526 36.7871C46.4055 40.3792 43.6832 43.4074 40.2969 45.526C36.9105 47.6446 32.9966 48.768 29.0022 48.768C25.0077 48.768 21.0938 47.6446 17.7074 45.526C14.3211 43.4074 11.5989 40.3792 9.85168 36.7871C15.4371 38.7375 21.9966 39.8606 29.0022 39.8606C36.0077 39.8606 42.5672 38.7375 48.1526 36.7871Z" fill="url(#paint8_radial_495_2189)"/>
<path d="M49.9635 31.2102C49.9419 31.3305 49.919 31.4507 49.895 31.577C49.871 31.7032 49.8517 31.7982 49.8277 31.9076C49.8277 31.9293 49.8192 31.9497 49.8144 31.9702C49.7916 32.082 49.7663 32.1926 49.7411 32.3032C49.7158 32.4139 49.693 32.5041 49.6677 32.6039C49.6533 32.664 49.6389 32.7241 49.622 32.7842C49.616 32.8107 49.6088 32.8383 49.6016 32.8648C49.586 32.9273 49.5691 32.985 49.5523 33.0512C49.5523 33.0752 49.5403 33.0993 49.5331 33.1233C49.5098 33.2083 49.4858 33.2937 49.4609 33.3795C49.4284 33.4997 49.3936 33.6103 49.3587 33.7258V33.733C49.325 33.8412 49.2914 33.9506 49.2553 34.0588C49.1771 34.2993 49.0954 34.5398 49.0148 34.7803C48.9727 34.9006 48.9294 35.01 48.8861 35.123C48.8428 35.2361 48.8116 35.3154 48.7731 35.4116C48.7154 35.5559 48.6529 35.699 48.5951 35.8409C48.5555 35.9347 48.5146 36.0285 48.4749 36.1211L48.4689 36.1331C48.4292 36.2233 48.3883 36.3123 48.3486 36.4012L48.2837 36.5407C48.244 36.6249 48.2043 36.7091 48.1634 36.7921C42.578 38.7425 36.0185 39.8656 29.013 39.8656C22.0074 39.8656 15.448 38.7425 9.8625 36.7921C9.82162 36.7091 9.78193 36.6249 9.74225 36.5407L9.67732 36.4012C9.63644 36.3123 9.59555 36.2233 9.55708 36.1331L9.55106 36.1211C9.51018 36.0285 9.46929 35.9347 9.43081 35.8409C9.36949 35.699 9.31057 35.5559 9.25285 35.4116C9.21437 35.3154 9.1771 35.2192 9.13982 35.123C9.10254 35.0268 9.05324 34.8958 9.01115 34.7803C8.92458 34.5398 8.84281 34.3054 8.76465 34.0588C8.72858 33.9506 8.69491 33.8412 8.66124 33.733V33.7258C8.62637 33.6055 8.59149 33.4949 8.55903 33.3795C8.53337 33.2945 8.50933 33.2091 8.48688 33.1233C8.47967 33.0993 8.47365 33.0752 8.46764 33.0512C8.45081 32.9899 8.43397 32.9309 8.41834 32.8648C8.41113 32.8383 8.40391 32.8107 8.3979 32.7842C8.38106 32.7241 8.36663 32.664 8.3522 32.6039C8.32695 32.5041 8.3029 32.4031 8.27885 32.3032C8.2548 32.2034 8.22835 32.082 8.2055 31.9702C8.2055 31.9497 8.19588 31.9293 8.19228 31.9076C8.16823 31.7982 8.14658 31.6876 8.12494 31.577C8.10329 31.4663 8.07804 31.3365 8.0564 31.2102C14.0134 33.5731 21.2354 34.9571 29.0178 34.9571C36.8001 34.9571 44.0065 33.5731 49.9635 31.2102Z" fill="url(#paint9_linear_495_2189)"/>
<path d="M48.1526 36.7871C42.5672 38.7375 36.0077 39.8606 29.0022 39.8606C21.9966 39.8606 15.4371 38.7375 9.85168 36.7871" stroke="url(#paint10_radial_495_2189)" stroke-width="0.72148" stroke-miterlimit="10"/>
<mask id="mask1_495_2189" style="mask-type:alpha" maskUnits="userSpaceOnUse" x="8" y="31" width="42" height="18">
<path d="M49.297 31.3484C49.3634 31.3231 49.4353 31.3162 49.5053 31.3283C49.5753 31.3405 49.6407 31.3712 49.6947 31.4173C49.7487 31.4634 49.7893 31.5232 49.8122 31.5904C49.8351 31.6577 49.8395 31.7298 49.8249 31.7993C48.8074 36.5671 46.1845 40.8413 42.3945 43.9078C38.6045 46.9742 33.877 48.6472 29.0018 48.6472C24.1266 48.6472 19.3991 46.9742 15.6091 43.9078C11.8192 40.8413 9.19626 36.5671 8.17871 31.7993C8.16413 31.7298 8.16854 31.6577 8.19146 31.5904C8.21437 31.5232 8.25496 31.4634 8.30895 31.4173C8.36294 31.3712 8.42835 31.3405 8.49832 31.3283C8.56828 31.3162 8.64022 31.3231 8.70659 31.3484C14.5325 33.5537 21.5068 34.8355 29.0018 34.8355C36.4968 34.8355 43.4711 33.5537 49.297 31.3484Z" fill="url(#paint11_linear_495_2189)"/>
</mask>
<g mask="url(#mask1_495_2189)">
<g filter="url(#filter2_f_495_2189)">
<path d="M49.297 31.3484C49.3634 31.3231 49.4353 31.3162 49.5053 31.3283C49.5753 31.3405 49.6407 31.3712 49.6947 31.4173C49.7487 31.4634 49.7893 31.5232 49.8122 31.5904C49.8351 31.6577 49.8395 31.7298 49.8249 31.7993C48.8074 36.5671 46.1845 40.8413 42.3945 43.9078C38.6045 46.9742 33.877 48.6472 29.0018 48.6472C24.1266 48.6472 19.3991 46.9742 15.6091 43.9078C11.8192 40.8413 9.19626 36.5671 8.17871 31.7993C8.16413 31.7298 8.16854 31.6577 8.19146 31.5904C8.21437 31.5232 8.25496 31.4634 8.30895 31.4173C8.36294 31.3712 8.42835 31.3405 8.49832 31.3283C8.56828 31.3162 8.64022 31.3231 8.70659 31.3484C14.5325 33.5537 21.5068 34.8355 29.0018 34.8355C36.4968 34.8355 43.4711 33.5537 49.297 31.3484Z" stroke="url(#paint12_linear_495_2189)" stroke-width="1.44296" stroke-miterlimit="10"/>
</g>
</g>
<mask id="path-17-outside-1_495_2189" maskUnits="userSpaceOnUse" x="6.17053" y="29.4429" width="45" height="21" fill="black">
<rect fill="white" x="6.17053" y="29.4429" width="45" height="21"/>
<path d="M49.2973 31.4687C49.3637 31.4435 49.4356 31.4366 49.5056 31.4487C49.5755 31.4608 49.6409 31.4916 49.6949 31.5377C49.7489 31.5838 49.7895 31.6436 49.8124 31.7108C49.8353 31.778 49.8397 31.8502 49.8252 31.9197C48.8076 36.6874 46.1847 40.9616 42.3947 44.0281C38.6047 47.0946 33.8772 48.7676 29.0021 48.7676C24.1269 48.7676 19.3994 47.0946 15.6094 44.0281C11.8194 40.9616 9.19651 36.6874 8.17895 31.9197C8.16438 31.8502 8.16879 31.778 8.1917 31.7108C8.21462 31.6436 8.2552 31.5838 8.30919 31.5377C8.36318 31.4916 8.42859 31.4608 8.49856 31.4487C8.56853 31.4366 8.64047 31.4435 8.70683 31.4687C14.5328 33.6741 21.5071 34.9559 29.0021 34.9559C36.497 34.9559 43.4713 33.6741 49.2973 31.4687Z"/>
</mask>
<path d="M49.2973 31.4687L49.7017 32.5371L49.7035 32.5364L49.2973 31.4687ZM49.8252 31.9197L50.9424 32.1581L50.9432 32.1541L49.8252 31.9197ZM8.17895 31.9197L7.06091 32.1541L7.06177 32.1581L8.17895 31.9197ZM8.70683 31.4687L8.30059 32.5364L8.30242 32.5371L8.70683 31.4687ZM49.7035 32.5364C49.5782 32.5841 49.4424 32.5971 49.3104 32.5742L49.7007 30.3231C49.4287 30.276 49.1491 30.3029 48.891 30.4011L49.7035 32.5364ZM49.3104 32.5742C49.1784 32.5513 49.0549 32.4933 48.953 32.4063L50.4369 30.6691C50.227 30.4898 49.9727 30.3703 49.7007 30.3231L49.3104 32.5742ZM48.953 32.4063C48.8511 32.3192 48.7745 32.2064 48.7312 32.0795L50.8936 31.3422C50.8045 31.0808 50.6468 30.8484 50.4369 30.6691L48.953 32.4063ZM48.7312 32.0795C48.6879 31.9526 48.6796 31.8164 48.7071 31.6853L50.9432 32.1541C50.9998 31.8839 50.9827 31.6034 50.8936 31.3422L48.7312 32.0795ZM48.708 31.6812C47.745 36.1932 45.2628 40.2381 41.6762 43.14L43.1133 44.9162C47.1066 41.6852 49.8702 37.1817 50.9423 32.1581L48.708 31.6812ZM41.6762 43.14C38.0895 46.042 33.6157 47.6252 29.0021 47.6252V49.9099C34.1388 49.9099 39.1199 48.1472 43.1133 44.9162L41.6762 43.14ZM29.0021 47.6252C24.3884 47.6252 19.9146 46.042 16.3279 43.14L14.8909 44.9162C18.8842 48.1472 23.8653 49.9099 29.0021 49.9099V47.6252ZM16.3279 43.14C12.7413 40.2381 10.2591 36.1932 9.29613 31.6812L7.06177 32.1581C8.13392 37.1817 10.8975 41.6852 14.8909 44.9162L16.3279 43.14ZM9.29699 31.6853C9.32449 31.8165 9.31617 31.9526 9.27292 32.0795L7.11048 31.3422C7.0214 31.6034 7.00427 31.8839 7.06091 32.1541L9.29699 31.6853ZM9.27292 32.0795C9.22967 32.2063 9.15307 32.3192 9.05115 32.4063L7.56723 30.6691C7.35733 30.8484 7.19956 31.0809 7.11048 31.3422L9.27292 32.0795ZM9.05115 32.4063C8.94923 32.4933 8.82576 32.5513 8.69371 32.5742L8.30341 30.3231C8.03143 30.3703 7.77714 30.4898 7.56723 30.6691L9.05115 32.4063ZM8.69371 32.5742C8.56168 32.5971 8.42588 32.5841 8.30059 32.5364L9.11308 30.4011C8.85505 30.3029 8.57537 30.276 8.30341 30.3231L8.69371 32.5742ZM8.30242 32.5371C14.2686 34.7955 21.3813 36.0982 29.0021 36.0982V33.8135C21.6329 33.8135 14.7969 32.5526 9.11125 30.4004L8.30242 32.5371ZM29.0021 36.0982C36.6229 36.0982 43.7355 34.7955 49.7017 32.5371L48.8929 30.4004C43.2072 32.5526 36.3712 33.8135 29.0021 33.8135V36.0982Z" fill="url(#paint13_linear_495_2189)" mask="url(#path-17-outside-1_495_2189)"/>
<path d="M49.2973 31.4687C49.3637 31.4435 49.4356 31.4366 49.5056 31.4487C49.5755 31.4608 49.6409 31.4916 49.6949 31.5377C49.7489 31.5838 49.7895 31.6436 49.8124 31.7108C49.8353 31.778 49.8397 31.8502 49.8252 31.9197C48.8076 36.6874 46.1847 40.9616 42.3947 44.0281C38.6047 47.0946 33.8772 48.7676 29.0021 48.7676C24.1269 48.7676 19.3994 47.0946 15.6094 44.0281C11.8194 40.9616 9.19651 36.6874 8.17895 31.9197C8.16438 31.8502 8.16879 31.778 8.1917 31.7108C8.21462 31.6436 8.2552 31.5838 8.30919 31.5377C8.36318 31.4916 8.42859 31.4608 8.49856 31.4487C8.56853 31.4366 8.64047 31.4435 8.70683 31.4687C14.5328 33.6741 21.5071 34.9559 29.0021 34.9559C36.497 34.9559 43.4713 33.6741 49.2973 31.4687Z" stroke="url(#paint14_linear_495_2189)" stroke-width="1.44296" stroke-miterlimit="10"/>
<defs>
<filter id="filter0_f_495_2189" x="-3.22443" y="24.8378" width="64.3346" height="36.8671" filterUnits="userSpaceOnUse" color-interpolation-filters="sRGB">
<feFlood flood-opacity="0" result="BackgroundImageFix"/>
<feBlend mode="normal" in="SourceGraphic" in2="BackgroundImageFix" result="shape"/>
<feGaussianBlur stdDeviation="1.50308" result="effect1_foregroundBlur_495_2189"/>
</filter>
<filter id="filter1_f_495_2189" x="-5.02813" y="23.0341" width="67.942" height="40.4745" filterUnits="userSpaceOnUse" color-interpolation-filters="sRGB">
<feFlood flood-opacity="0" result="BackgroundImageFix"/>
<feBlend mode="normal" in="SourceGraphic" in2="BackgroundImageFix" result="shape"/>
<feGaussianBlur stdDeviation="2.40493" result="effect1_foregroundBlur_495_2189"/>
</filter>
<filter id="filter2_f_495_2189" x="6.24639" y="29.3986" width="45.5109" height="21.1725" filterUnits="userSpaceOnUse" color-interpolation-filters="sRGB">
<feFlood flood-opacity="0" result="BackgroundImageFix"/>
<feBlend mode="normal" in="SourceGraphic" in2="BackgroundImageFix" result="shape"/>
<feGaussianBlur stdDeviation="0.601233" result="effect1_foregroundBlur_495_2189"/>
</filter>
<radialGradient id="paint0_radial_495_2189" cx="0" cy="0" r="1" gradientUnits="userSpaceOnUse" gradientTransform="translate(28.9794) rotate(90) scale(57.9589)">
<stop stop-color="#FFDE43"/>
<stop offset="1" stop-color="#FFBC00"/>
</radialGradient>
<radialGradient id="paint1_radial_495_2189" cx="0" cy="0" r="1" gradientUnits="userSpaceOnUse" gradientTransform="translate(28.9794 7.75591) rotate(90) scale(50.203)">
<stop stop-color="white" stop-opacity="0.5"/>
<stop offset="0.782278"/>
</radialGradient>
<radialGradient id="paint2_radial_495_2189" cx="0" cy="0" r="1" gradientUnits="userSpaceOnUse" gradientTransform="translate(28.9794 7.75591) rotate(90) scale(50.203)">
<stop stop-color="white" stop-opacity="0.5"/>
<stop offset="0.782278"/>
</radialGradient>
<radialGradient id="paint3_radial_495_2189" cx="0" cy="0" r="1" gradientUnits="userSpaceOnUse" gradientTransform="translate(28.9794 -6.31295) rotate(90) scale(64.2718 86.9184)">
<stop offset="0.0922635" stop-color="white"/>
<stop offset="0.670207" stop-color="white" stop-opacity="0"/>
</radialGradient>
<radialGradient id="paint4_radial_495_2189" cx="0" cy="0" r="1" gradientUnits="userSpaceOnUse" gradientTransform="translate(20.57 20.0778) scale(4.00074 8.79564)">
<stop stop-color="#743C1C"/>
<stop offset="1" stop-color="#401C02"/>
</radialGradient>
<linearGradient id="paint5_linear_495_2189" x1="20.5744" y1="29.3582" x2="20.5744" y2="10.7381" gradientUnits="userSpaceOnUse">
<stop stop-color="#FFDE43"/>
<stop offset="0.22" stop-color="#FED93F"/>
<stop offset="0.51" stop-color="#FCC934"/>
<stop offset="0.82" stop-color="#F9AF21"/>
<stop offset="1" stop-color="#F79D14"/>
</linearGradient>
<radialGradient id="paint6_radial_495_2189" cx="0" cy="0" r="1" gradientUnits="userSpaceOnUse" gradientTransform="translate(37.4766 20.0778) scale(4.00074 8.79564)">
<stop stop-color="#743C1C"/>
<stop offset="1" stop-color="#401C02"/>
</radialGradient>
<linearGradient id="paint7_linear_495_2189" x1="37.481" y1="29.3582" x2="37.481" y2="10.7381" gradientUnits="userSpaceOnUse">
<stop stop-color="#FFDE43"/>
<stop offset="0.22" stop-color="#FED93F"/>
<stop offset="0.51" stop-color="#FCC934"/>
<stop offset="0.82" stop-color="#F9AF21"/>
<stop offset="1" stop-color="#F79D14"/>
</linearGradient>
<radialGradient id="paint8_radial_495_2189" cx="0" cy="0" r="1" gradientUnits="userSpaceOnUse" gradientTransform="translate(29.0022 42.7534) scale(14.4552 12.1014)">
<stop stop-color="#743C1C"/>
<stop offset="1" stop-color="#401C02"/>
</radialGradient>
<linearGradient id="paint9_linear_495_2189" x1="8.04034" y1="35.5395" x2="49.9635" y2="35.5395" gradientUnits="userSpaceOnUse">
<stop stop-color="#CCCCCC"/>
<stop offset="0.05" stop-color="#D5D5D5"/>
<stop offset="0.2" stop-color="#E9E9E9"/>
<stop offset="0.35" stop-color="#F6F6F6"/>
<stop offset="0.5" stop-color="#FAFAFA"/>
<stop offset="0.65" stop-color="#F6F6F6"/>
<stop offset="0.8" stop-color="#E9E9E9"/>
<stop offset="0.95" stop-color="#D5D5D5"/>
<stop offset="1" stop-color="#CCCCCC"/>
</linearGradient>
<radialGradient id="paint10_radial_495_2189" cx="0" cy="0" r="1" gradientUnits="userSpaceOnUse" gradientTransform="translate(29.0022 38.3335) scale(13.6913)">
<stop stop-color="#401C02"/>
<stop offset="1" stop-color="#401C02"/>
</radialGradient>
<linearGradient id="paint11_linear_495_2189" x1="20935.2" y1="11139.4" x2="20935.2" y2="8435.21" gradientUnits="userSpaceOnUse">
<stop stop-color="#401C02"/>
<stop offset="1" stop-color="#401C02"/>
</linearGradient>
<linearGradient id="paint12_linear_495_2189" x1="20935.2" y1="11139.4" x2="20935.2" y2="8435.21" gradientUnits="userSpaceOnUse">
<stop stop-color="#401C02"/>
<stop offset="1" stop-color="#401C02"/>
</linearGradient>
<linearGradient id="paint13_linear_495_2189" x1="29.0021" y1="49.2551" x2="29.0021" y2="30.8854" gradientUnits="userSpaceOnUse">
<stop offset="0.265625" stop-color="#FFDE43"/>
<stop offset="1" stop-color="#F79D14"/>
</linearGradient>
<linearGradient id="paint14_linear_495_2189" x1="20935.2" y1="11139.5" x2="20935.2" y2="8435.33" gradientUnits="userSpaceOnUse">
<stop stop-color="#401C02"/>
<stop offset="1" stop-color="#401C02"/>
</linearGradient>
</defs>
</svg>
