<svg width="59" height="59" viewBox="0 0 59 59" fill="none" xmlns="http://www.w3.org/2000/svg">
<path d="M29.005 58.0022C45.0218 58.0022 58.0061 45.0179 58.0061 29.0011C58.0061 12.9842 45.0218 0 29.005 0C12.9881 0 0.00390625 12.9842 0.00390625 29.0011C0.00390625 45.0179 12.9881 58.0022 29.005 58.0022Z" fill="url(#paint0_radial_495_2190)"/>
<g style="mix-blend-mode:soft-light">
<path d="M29.005 58.0022C45.0218 58.0022 58.0061 45.0179 58.0061 29.0011C58.0061 12.9842 45.0218 0 29.005 0C12.9881 0 0.00390625 12.9842 0.00390625 29.0011C0.00390625 45.0179 12.9881 58.0022 29.005 58.0022Z" fill="url(#paint1_radial_495_2190)"/>
</g>
<g style="mix-blend-mode:soft-light">
<path d="M29.005 58.0022C45.0218 58.0022 58.0061 45.0179 58.0061 29.0011C58.0061 12.9842 45.0218 0 29.005 0C12.9881 0 0.00390625 12.9842 0.00390625 29.0011C0.00390625 45.0179 12.9881 58.0022 29.005 58.0022Z" fill="url(#paint2_radial_495_2190)"/>
</g>
<g style="mix-blend-mode:overlay">
<path d="M29.005 58.0022C45.0218 58.0022 58.0061 45.0179 58.0061 29.0011C58.0061 12.9842 45.0218 0 29.005 0C12.9881 0 0.00390625 12.9842 0.00390625 29.0011C0.00390625 45.0179 12.9881 58.0022 29.005 58.0022Z" fill="url(#paint3_radial_495_2190)" fill-opacity="0.7"/>
</g>
<mask id="mask0_495_2190" style="mask-type:alpha" maskUnits="userSpaceOnUse" x="0" y="0" width="59" height="59">
<path d="M29.005 58.0022C45.0218 58.0022 58.0061 45.0179 58.0061 29.0011C58.0061 12.9842 45.0218 0 29.005 0C12.9881 0 0.00390625 12.9842 0.00390625 29.0011C0.00390625 45.0179 12.9881 58.0022 29.005 58.0022Z" fill="white"/>
</mask>
<g mask="url(#mask0_495_2190)">
<g filter="url(#filter0_f_495_2190)">
<path d="M-0.161562 28.1735C-0.130072 27.7615 0.00553256 27.7202 0.0450839 28.1386C0.0890263 28.6035 0.00360657 29.5381 0.0241718 30.1018C0.0786248 31.5945 0.307437 32.8923 0.543317 33.948C1.30345 37.35 2.35611 39.5421 3.33794 41.3994C6.5653 47.5046 10.1006 50.5961 13.5494 52.9261C18.6048 56.3414 23.7012 57.4278 28.8018 57.6582C28.9304 57.664 28.9518 58.502 28.8253 58.6111C28.597 58.8078 28.3143 58.6126 28.0808 58.6044C27.4098 58.5809 26.7389 58.5349 26.068 58.4651C24.0788 58.2584 22.0896 57.8374 20.1045 57.1601C14.707 55.3186 8.88728 52.1654 3.80478 43.2841C3.48505 42.7254 3.16786 42.1372 2.85515 41.5051C2.60507 40.9996 2.35742 40.4697 2.11413 39.903C1.31392 38.0389 -0.55084 33.2671 -0.161562 28.1735ZM28.8053 58.6201C28.6826 58.6239 28.6515 57.8427 28.7685 57.6805C28.9453 57.4353 29.2104 57.6372 29.3968 57.6255C30.171 57.5772 30.9451 57.5054 31.7189 57.4082C33.8407 57.1418 35.961 56.6868 38.0764 55.9863C43.3235 54.2486 48.9647 51.5995 53.911 43.4608C54.2258 42.9428 54.5379 42.3933 54.8458 41.8025C55.7814 40.0074 58.1265 35.2423 57.8554 29.3186C57.8325 28.8192 57.9846 28.5201 58.0526 28.9485C58.1392 29.4939 58.1041 30.631 58.0802 31.2361C58.0038 33.1739 57.7062 34.8127 57.3924 36.1362C56.398 40.3305 55.0018 42.7624 53.7233 44.7929C49.5676 51.3929 45.0541 54.0536 40.6659 55.9656C36.7301 57.6805 32.7644 58.4979 28.8053 58.6201Z" fill="#401C02"/>
</g>
<g filter="url(#filter1_f_495_2190)">
<path d="M-0.161562 28.1735C-0.130072 27.7615 0.00553256 27.7202 0.0450839 28.1386C0.0890263 28.6035 0.00360657 29.5381 0.0241718 30.1018C0.0786248 31.5945 0.307437 32.8923 0.543317 33.948C1.30345 37.35 2.35611 39.5421 3.33794 41.3994C6.5653 47.5046 10.1006 50.5961 13.5494 52.9261C18.6048 56.3414 23.7012 57.4278 28.8018 57.6582C28.9304 57.664 28.9518 58.502 28.8253 58.6111C28.597 58.8078 28.3143 58.6126 28.0808 58.6044C27.4098 58.5809 26.7389 58.5349 26.068 58.4651C24.0788 58.2584 22.0896 57.8374 20.1045 57.1601C14.707 55.3186 8.88728 52.1654 3.80478 43.2841C3.48505 42.7254 3.16786 42.1372 2.85515 41.5051C2.60507 40.9996 2.35742 40.4697 2.11413 39.903C1.31392 38.0389 -0.55084 33.2671 -0.161562 28.1735ZM28.8053 58.6201C28.6826 58.6239 28.6515 57.8427 28.7685 57.6805C28.9453 57.4353 29.2104 57.6372 29.3968 57.6255C30.171 57.5772 30.9451 57.5054 31.7189 57.4082C33.8407 57.1418 35.961 56.6868 38.0764 55.9863C43.3235 54.2486 48.9647 51.5995 53.911 43.4608C54.2258 42.9428 54.5379 42.3933 54.8458 41.8025C55.7814 40.0074 58.1265 35.2423 57.8554 29.3186C57.8325 28.8192 57.9846 28.5201 58.0526 28.9485C58.1392 29.4939 58.1041 30.631 58.0802 31.2361C58.0038 33.1739 57.7062 34.8127 57.3924 36.1362C56.398 40.3305 55.0018 42.7624 53.7233 44.7929C49.5676 51.3929 45.0541 54.0536 40.6659 55.9656C36.7301 57.6805 32.7644 58.4979 28.8053 58.6201Z" fill="#401C02"/>
</g>
</g>
<path d="M20.3219 26.7059C22.2458 26.7059 23.8055 24.3823 23.8055 21.516C23.8055 18.6497 22.2458 16.3262 20.3219 16.3262C18.398 16.3262 16.8384 18.6497 16.8384 21.516C16.8384 24.3823 18.398 26.7059 20.3219 26.7059Z" fill="url(#paint4_radial_495_2190)"/>
<path d="M20.3219 26.7059C22.2458 26.7059 23.8055 24.3823 23.8055 21.516C23.8055 18.6497 22.2458 16.3262 20.3219 16.3262C18.398 16.3262 16.8384 18.6497 16.8384 21.516C16.8384 24.3823 18.398 26.7059 20.3219 26.7059Z" stroke="url(#paint5_linear_495_2190)" stroke-width="0.240493" stroke-miterlimit="10"/>
<path d="M37.736 26.7059C39.6599 26.7059 41.2195 24.3823 41.2195 21.516C41.2195 18.6497 39.6599 16.3262 37.736 16.3262C35.8121 16.3262 34.2524 18.6497 34.2524 21.516C34.2524 24.3823 35.8121 26.7059 37.736 26.7059Z" fill="url(#paint6_radial_495_2190)"/>
<path d="M37.736 26.7059C39.6599 26.7059 41.2195 24.3823 41.2195 21.516C41.2195 18.6497 39.6599 16.3262 37.736 16.3262C35.8121 16.3262 34.2524 18.6497 34.2524 21.516C34.2524 24.3823 35.8121 26.7059 37.736 26.7059Z" stroke="url(#paint7_linear_495_2190)" stroke-width="0.240493" stroke-miterlimit="10"/>
<path d="M42.1625 36.2087H15.7587C14.8941 36.2087 14.1931 36.9097 14.1931 37.7743C14.1931 38.639 14.8941 39.34 15.7587 39.34H42.1625C43.0271 39.34 43.7281 38.639 43.7281 37.7743C43.7281 36.9097 43.0271 36.2087 42.1625 36.2087Z" fill="url(#paint8_radial_495_2190)"/>
<path d="M42.1625 36.2087H15.7587C14.8941 36.2087 14.1931 36.9097 14.1931 37.7743C14.1931 38.639 14.8941 39.34 15.7587 39.34H42.1625C43.0271 39.34 43.7281 38.639 43.7281 37.7743C43.7281 36.9097 43.0271 36.2087 42.1625 36.2087Z" stroke="url(#paint9_linear_495_2190)" stroke-width="0.300617" stroke-miterlimit="10"/>
<defs>
<filter id="filter0_f_495_2190" x="-3.22052" y="24.8378" width="64.3346" height="36.8671" filterUnits="userSpaceOnUse" color-interpolation-filters="sRGB">
<feFlood flood-opacity="0" result="BackgroundImageFix"/>
<feBlend mode="normal" in="SourceGraphic" in2="BackgroundImageFix" result="shape"/>
<feGaussianBlur stdDeviation="1.50308" result="effect1_foregroundBlur_495_2190"/>
</filter>
<filter id="filter1_f_495_2190" x="-5.02422" y="23.0341" width="67.942" height="40.4745" filterUnits="userSpaceOnUse" color-interpolation-filters="sRGB">
<feFlood flood-opacity="0" result="BackgroundImageFix"/>
<feBlend mode="normal" in="SourceGraphic" in2="BackgroundImageFix" result="shape"/>
<feGaussianBlur stdDeviation="2.40493" result="effect1_foregroundBlur_495_2190"/>
</filter>
<radialGradient id="paint0_radial_495_2190" cx="0" cy="0" r="1" gradientUnits="userSpaceOnUse" gradientTransform="translate(28.9833) rotate(90) scale(57.9589)">
<stop stop-color="#FFDE43"/>
<stop offset="1" stop-color="#FFBC00"/>
</radialGradient>
<radialGradient id="paint1_radial_495_2190" cx="0" cy="0" r="1" gradientUnits="userSpaceOnUse" gradientTransform="translate(28.9833 7.75591) rotate(90) scale(50.203)">
<stop stop-color="white" stop-opacity="0.5"/>
<stop offset="0.782278"/>
</radialGradient>
<radialGradient id="paint2_radial_495_2190" cx="0" cy="0" r="1" gradientUnits="userSpaceOnUse" gradientTransform="translate(28.9833 7.75591) rotate(90) scale(50.203)">
<stop stop-color="white" stop-opacity="0.5"/>
<stop offset="0.782278"/>
</radialGradient>
<radialGradient id="paint3_radial_495_2190" cx="0" cy="0" r="1" gradientUnits="userSpaceOnUse" gradientTransform="translate(28.9833 -6.31295) rotate(90) scale(64.2718 86.9184)">
<stop offset="0.0922635" stop-color="white"/>
<stop offset="0.670207" stop-color="white" stop-opacity="0"/>
</radialGradient>
<radialGradient id="paint4_radial_495_2190" cx="0" cy="0" r="1" gradientUnits="userSpaceOnUse" gradientTransform="translate(20.3171 21.5126) scale(4.44067 5.19885)">
<stop stop-color="#743C1C"/>
<stop offset="1" stop-color="#401C02"/>
</radialGradient>
<linearGradient id="paint5_linear_495_2190" x1="20.3219" y1="26.9979" x2="20.3219" y2="15.9922" gradientUnits="userSpaceOnUse">
<stop stop-color="#FFDE43"/>
<stop offset="0.22" stop-color="#FED93F"/>
<stop offset="0.51" stop-color="#FCC934"/>
<stop offset="0.82" stop-color="#F9AF21"/>
<stop offset="1" stop-color="#F79D14"/>
</linearGradient>
<radialGradient id="paint6_radial_495_2190" cx="0" cy="0" r="1" gradientUnits="userSpaceOnUse" gradientTransform="translate(37.7312 21.5126) scale(4.44067 5.19885)">
<stop stop-color="#743C1C"/>
<stop offset="1" stop-color="#401C02"/>
</radialGradient>
<linearGradient id="paint7_linear_495_2190" x1="37.736" y1="26.9979" x2="37.736" y2="15.9922" gradientUnits="userSpaceOnUse">
<stop stop-color="#FFDE43"/>
<stop offset="0.22" stop-color="#FED93F"/>
<stop offset="0.51" stop-color="#FCC934"/>
<stop offset="0.82" stop-color="#F9AF21"/>
<stop offset="1" stop-color="#F79D14"/>
</linearGradient>
<radialGradient id="paint8_radial_495_2190" cx="0" cy="0" r="1" gradientUnits="userSpaceOnUse" gradientTransform="translate(28.9606 37.768) scale(11.1468 3.1627)">
<stop stop-color="#743C1C"/>
<stop offset="1" stop-color="#401C02"/>
</radialGradient>
<linearGradient id="paint9_linear_495_2190" x1="28.9606" y1="39.4281" x2="28.9606" y2="36.108" gradientUnits="userSpaceOnUse">
<stop offset="0.265625" stop-color="#FFDE43"/>
<stop offset="1" stop-color="#F79D14"/>
</linearGradient>
</defs>
</svg>
