<svg width="59" height="59" viewBox="0 0 59 59" fill="none" xmlns="http://www.w3.org/2000/svg">
<path d="M29.003 58.0022C45.0199 58.0022 58.0041 45.0179 58.0041 29.0011C58.0041 12.9842 45.0199 0 29.003 0C12.9862 0 0.00195312 12.9842 0.00195312 29.0011C0.00195312 45.0179 12.9862 58.0022 29.003 58.0022Z" fill="url(#paint0_radial_495_2188)"/>
<g style="mix-blend-mode:soft-light">
<path d="M29.003 58.0022C45.0199 58.0022 58.0041 45.0179 58.0041 29.0011C58.0041 12.9842 45.0199 0 29.003 0C12.9862 0 0.00195312 12.9842 0.00195312 29.0011C0.00195312 45.0179 12.9862 58.0022 29.003 58.0022Z" fill="url(#paint1_radial_495_2188)"/>
</g>
<g style="mix-blend-mode:soft-light">
<path d="M29.003 58.0022C45.0199 58.0022 58.0041 45.0179 58.0041 29.0011C58.0041 12.9842 45.0199 0 29.003 0C12.9862 0 0.00195312 12.9842 0.00195312 29.0011C0.00195312 45.0179 12.9862 58.0022 29.003 58.0022Z" fill="url(#paint2_radial_495_2188)"/>
</g>
<g style="mix-blend-mode:overlay">
<path d="M29.003 58.0022C45.0199 58.0022 58.0041 45.0179 58.0041 29.0011C58.0041 12.9842 45.0199 0 29.003 0C12.9862 0 0.00195312 12.9842 0.00195312 29.0011C0.00195312 45.0179 12.9862 58.0022 29.003 58.0022Z" fill="url(#paint3_radial_495_2188)" fill-opacity="0.7"/>
</g>
<mask id="mask0_495_2188" style="mask-type:alpha" maskUnits="userSpaceOnUse" x="0" y="0" width="59" height="59">
<path d="M29.003 58.0022C45.0199 58.0022 58.0041 45.0179 58.0041 29.0011C58.0041 12.9842 45.0199 0 29.003 0C12.9862 0 0.00195312 12.9842 0.00195312 29.0011C0.00195312 45.0179 12.9862 58.0022 29.003 58.0022Z" fill="white"/>
</mask>
<g mask="url(#mask0_495_2188)">
<g filter="url(#filter0_f_495_2188)">
<path d="M-0.163516 28.1735C-0.132025 27.7615 0.00357944 27.7202 0.0431308 28.1386C0.0870732 28.6035 0.00165345 29.5381 0.0222187 30.1018C0.0766717 31.5945 0.305484 32.8923 0.541364 33.948C1.30149 37.35 2.35416 39.5421 3.33599 41.3994C6.56334 47.5046 10.0986 50.5961 13.5474 52.9261C18.6028 56.3414 23.6992 57.4278 28.7998 57.6582C28.9285 57.664 28.9499 58.502 28.8233 58.6111C28.5951 58.8078 28.3124 58.6126 28.0788 58.6044C27.4079 58.5809 26.737 58.5349 26.0661 58.4651C24.0768 58.2584 22.0877 57.8374 20.1025 57.1601C14.705 55.3186 8.88533 52.1654 3.80283 43.2841C3.4831 42.7254 3.1659 42.1372 2.85319 41.5051C2.60311 40.9996 2.35547 40.4697 2.11218 39.903C1.31197 38.0389 -0.552793 33.2671 -0.163516 28.1735ZM28.8034 58.6201C28.6807 58.6239 28.6496 57.8427 28.7666 57.6805C28.9434 57.4353 29.2084 57.6372 29.3949 57.6255C30.1691 57.5772 30.9431 57.5054 31.717 57.4082C33.8387 57.1418 35.959 56.6868 38.0745 55.9863C43.3216 54.2486 48.9627 51.5995 53.9091 43.4608C54.2239 42.9428 54.536 42.3933 54.8439 41.8025C55.7795 40.0074 58.1245 35.2423 57.8534 29.3186C57.8306 28.8192 57.9826 28.5201 58.0506 28.9485C58.1373 29.4939 58.1021 30.631 58.0782 31.2361C58.0018 33.1739 57.7042 34.8127 57.3904 36.1362C56.396 40.3305 54.9999 42.7624 53.7213 44.7929C49.5657 51.3929 45.0521 54.0536 40.664 55.9656C36.7282 57.6805 32.7624 58.4979 28.8034 58.6201Z" fill="#401C02"/>
</g>
<g filter="url(#filter1_f_495_2188)">
<path d="M-0.163516 28.1735C-0.132025 27.7615 0.00357944 27.7202 0.0431308 28.1386C0.0870732 28.6035 0.00165345 29.5381 0.0222187 30.1018C0.0766717 31.5945 0.305484 32.8923 0.541364 33.948C1.30149 37.35 2.35416 39.5421 3.33599 41.3994C6.56334 47.5046 10.0986 50.5961 13.5474 52.9261C18.6028 56.3414 23.6992 57.4278 28.7998 57.6582C28.9285 57.664 28.9499 58.502 28.8233 58.6111C28.5951 58.8078 28.3124 58.6126 28.0788 58.6044C27.4079 58.5809 26.737 58.5349 26.0661 58.4651C24.0768 58.2584 22.0877 57.8374 20.1025 57.1601C14.705 55.3186 8.88533 52.1654 3.80283 43.2841C3.4831 42.7254 3.1659 42.1372 2.85319 41.5051C2.60311 40.9996 2.35547 40.4697 2.11218 39.903C1.31197 38.0389 -0.552793 33.2671 -0.163516 28.1735ZM28.8034 58.6201C28.6807 58.6239 28.6496 57.8427 28.7666 57.6805C28.9434 57.4353 29.2084 57.6372 29.3949 57.6255C30.1691 57.5772 30.9431 57.5054 31.717 57.4082C33.8387 57.1418 35.959 56.6868 38.0745 55.9863C43.3216 54.2486 48.9627 51.5995 53.9091 43.4608C54.2239 42.9428 54.536 42.3933 54.8439 41.8025C55.7795 40.0074 58.1245 35.2423 57.8534 29.3186C57.8306 28.8192 57.9826 28.5201 58.0506 28.9485C58.1373 29.4939 58.1021 30.631 58.0782 31.2361C58.0018 33.1739 57.7042 34.8127 57.3904 36.1362C56.396 40.3305 54.9999 42.7624 53.7213 44.7929C49.5657 51.3929 45.0521 54.0536 40.664 55.9656C36.7282 57.6805 32.7624 58.4979 28.8034 58.6201Z" fill="#401C02"/>
</g>
</g>
<path d="M19.7501 26.4351C21.5585 26.4351 23.0245 24.6267 23.0245 22.396C23.0245 20.1653 21.5585 18.3569 19.7501 18.3569C17.9418 18.3569 16.4758 20.1653 16.4758 22.396C16.4758 24.6267 17.9418 26.4351 19.7501 26.4351Z" fill="url(#paint4_radial_495_2188)"/>
<path d="M19.7501 26.4351C21.5585 26.4351 23.0245 24.6267 23.0245 22.396C23.0245 20.1653 21.5585 18.3569 19.7501 18.3569C17.9418 18.3569 16.4758 20.1653 16.4758 22.396C16.4758 24.6267 17.9418 26.4351 19.7501 26.4351Z" stroke="url(#paint5_linear_495_2188)" stroke-width="0.240493" stroke-miterlimit="10"/>
<path d="M38.1935 26.4351C40.0019 26.4351 41.4678 24.6267 41.4678 22.396C41.4678 20.1653 40.0019 18.3569 38.1935 18.3569C36.3852 18.3569 34.9192 20.1653 34.9192 22.396C34.9192 24.6267 36.3852 26.4351 38.1935 26.4351Z" fill="url(#paint6_radial_495_2188)"/>
<path d="M38.1935 26.4351C40.0019 26.4351 41.4678 24.6267 41.4678 22.396C41.4678 20.1653 40.0019 18.3569 38.1935 18.3569C36.3852 18.3569 34.9192 20.1653 34.9192 22.396C34.9192 24.6267 36.3852 26.4351 38.1935 26.4351Z" stroke="url(#paint7_linear_495_2188)" stroke-width="0.240493" stroke-miterlimit="10"/>
<path d="M40.9987 41.828C41.0405 41.9396 40.91 42.028 40.817 41.9535C39.9767 41.2814 39.1064 40.7062 38.2361 40.198C37.2586 39.6272 36.2598 39.1409 35.2397 38.7815C34.2197 38.4009 33.1996 38.1261 32.1371 37.9358C31.0958 37.7667 30.0333 37.6609 28.9707 37.6609C27.9082 37.6609 26.8456 37.7455 25.8043 37.9358C24.763 38.1261 23.7217 38.4009 22.7017 38.7815C21.6816 39.162 20.6828 39.6272 19.7053 40.198C18.8476 40.7289 17.99 41.3109 17.1323 41.9743C17.0397 42.046 16.9139 41.9593 16.9553 41.8498C17.1285 41.3915 17.3689 40.9572 17.6227 40.5363C17.9415 40.0077 18.3027 39.5003 18.7278 39.0352C19.5353 38.0838 20.5128 37.2592 21.6179 36.5615C22.6804 35.885 23.8917 35.3564 25.1455 35.0182C26.3993 34.6799 27.6957 34.5107 28.992 34.5107C30.2883 34.5107 31.5846 34.6799 32.8384 35.0182C34.0922 35.3776 35.2822 35.885 36.3873 36.5615C37.4711 37.2381 38.4486 38.0838 39.2774 39.0352C39.6812 39.5215 40.0637 40.0077 40.3825 40.5363C40.6141 40.9479 40.8329 41.3851 40.9987 41.828Z" stroke="url(#paint8_linear_495_2188)" stroke-width="0.601233"/>
<path d="M40.9987 41.828C41.0405 41.9396 40.91 42.028 40.817 41.9535C39.9767 41.2814 39.1064 40.7062 38.2361 40.198C37.2586 39.6272 36.2598 39.1409 35.2397 38.7815C34.2197 38.4009 33.1996 38.1261 32.1371 37.9358C31.0958 37.7667 30.0333 37.6609 28.9707 37.6609C27.9082 37.6609 26.8456 37.7455 25.8043 37.9358C24.763 38.1261 23.7217 38.4009 22.7017 38.7815C21.6816 39.162 20.6828 39.6272 19.7053 40.198C18.8476 40.7289 17.99 41.3109 17.1323 41.9743C17.0397 42.046 16.9139 41.9593 16.9553 41.8498C17.1285 41.3915 17.3689 40.9572 17.6227 40.5363C17.9415 40.0077 18.3027 39.5003 18.7278 39.0352C19.5353 38.0838 20.5128 37.2592 21.6179 36.5615C22.6804 35.885 23.8917 35.3564 25.1455 35.0182C26.3993 34.6799 27.6957 34.5107 28.992 34.5107C30.2883 34.5107 31.5846 34.6799 32.8384 35.0182C34.0922 35.3776 35.2822 35.885 36.3873 36.5615C37.4711 37.2381 38.4486 38.0838 39.2774 39.0352C39.6812 39.5215 40.0637 40.0077 40.3825 40.5363C40.6141 40.9479 40.8329 41.3851 40.9987 41.828Z" fill="url(#paint9_radial_495_2188)"/>
<defs>
<filter id="filter0_f_495_2188" x="-3.22247" y="24.8378" width="64.3346" height="36.8671" filterUnits="userSpaceOnUse" color-interpolation-filters="sRGB">
<feFlood flood-opacity="0" result="BackgroundImageFix"/>
<feBlend mode="normal" in="SourceGraphic" in2="BackgroundImageFix" result="shape"/>
<feGaussianBlur stdDeviation="1.50308" result="effect1_foregroundBlur_495_2188"/>
</filter>
<filter id="filter1_f_495_2188" x="-5.02617" y="23.0341" width="67.942" height="40.4745" filterUnits="userSpaceOnUse" color-interpolation-filters="sRGB">
<feFlood flood-opacity="0" result="BackgroundImageFix"/>
<feBlend mode="normal" in="SourceGraphic" in2="BackgroundImageFix" result="shape"/>
<feGaussianBlur stdDeviation="2.40493" result="effect1_foregroundBlur_495_2188"/>
</filter>
<radialGradient id="paint0_radial_495_2188" cx="0" cy="0" r="1" gradientUnits="userSpaceOnUse" gradientTransform="translate(28.9814) rotate(90) scale(57.9589)">
<stop stop-color="#FFDE43"/>
<stop offset="1" stop-color="#FFBC00"/>
</radialGradient>
<radialGradient id="paint1_radial_495_2188" cx="0" cy="0" r="1" gradientUnits="userSpaceOnUse" gradientTransform="translate(28.9814 7.75591) rotate(90) scale(50.203)">
<stop stop-color="white" stop-opacity="0.5"/>
<stop offset="0.782278"/>
</radialGradient>
<radialGradient id="paint2_radial_495_2188" cx="0" cy="0" r="1" gradientUnits="userSpaceOnUse" gradientTransform="translate(28.9814 7.75591) rotate(90) scale(50.203)">
<stop stop-color="white" stop-opacity="0.5"/>
<stop offset="0.782278"/>
</radialGradient>
<radialGradient id="paint3_radial_495_2188" cx="0" cy="0" r="1" gradientUnits="userSpaceOnUse" gradientTransform="translate(28.9814 -6.31295) rotate(90) scale(64.2718 86.9184)">
<stop offset="0.0922635" stop-color="white"/>
<stop offset="0.670207" stop-color="white" stop-opacity="0"/>
</radialGradient>
<radialGradient id="paint4_radial_495_2188" cx="0" cy="0" r="1" gradientUnits="userSpaceOnUse" gradientTransform="translate(19.7456 22.3933) scale(4.17396 4.04609)">
<stop stop-color="#743C1C"/>
<stop offset="1" stop-color="#401C02"/>
</radialGradient>
<linearGradient id="paint5_linear_495_2188" x1="19.7501" y1="26.6624" x2="19.7501" y2="18.097" gradientUnits="userSpaceOnUse">
<stop stop-color="#FFDE43"/>
<stop offset="0.22" stop-color="#FED93F"/>
<stop offset="0.51" stop-color="#FCC934"/>
<stop offset="0.82" stop-color="#F9AF21"/>
<stop offset="1" stop-color="#F79D14"/>
</linearGradient>
<radialGradient id="paint6_radial_495_2188" cx="0" cy="0" r="1" gradientUnits="userSpaceOnUse" gradientTransform="translate(38.189 22.3933) scale(4.17396 4.04609)">
<stop stop-color="#743C1C"/>
<stop offset="1" stop-color="#401C02"/>
</radialGradient>
<linearGradient id="paint7_linear_495_2188" x1="38.1935" y1="26.6624" x2="38.1935" y2="18.097" gradientUnits="userSpaceOnUse">
<stop stop-color="#FFDE43"/>
<stop offset="0.22" stop-color="#FED93F"/>
<stop offset="0.51" stop-color="#FCC934"/>
<stop offset="0.82" stop-color="#F9AF21"/>
<stop offset="1" stop-color="#F79D14"/>
</linearGradient>
<linearGradient id="paint8_linear_495_2188" x1="28.9813" y1="42.4231" x2="28.9813" y2="34.2631" gradientUnits="userSpaceOnUse">
<stop offset="0.265625" stop-color="#FFDE43"/>
<stop offset="1" stop-color="#F79D14"/>
</linearGradient>
<radialGradient id="paint9_radial_495_2188" cx="0" cy="0" r="1" gradientUnits="userSpaceOnUse" gradientTransform="translate(28.9813 38.3431) scale(9.16726 7.77317)">
<stop stop-color="#743C1C"/>
<stop offset="1" stop-color="#401C02"/>
</radialGradient>
</defs>
</svg>
